<svg xmlns="http://www.w3.org/2000/svg" viewBox="0 0 64 64"><defs><style>.cls-4{fill:#556a8a}</style></defs><g id="ICONS-64x"><path d="M31 4a29 29 0 1029 29A29 29 0 0031 4z" fill="#fff"/><path d="M26.52 61.5A29.71 29.71 0 013.77 41.67c-.3-.89-.55-1.79-.76-2.67H61c-.2.88-.46 1.78-.76 2.67A29.72 29.72 0 0137.46 61.5z" fill="#55d2f6"/><path d="M32 3.5a29 29 0 1029 29 29 29 0 00-29-29z" fill="none" stroke="#556a8a" stroke-miterlimit="10" stroke-width="2"/><path class="cls-4" d="M31 49.07h2v.14h-2z"/><path class="cls-4" d="M32.07 12.07L18.44 25.7l1.42 1.41L31 15.97V50h2V15.83l11.14 11.14 1.42-1.41-13.49-13.49z"/></g></svg>